<mxfile host="app.diagrams.net" modified="2021-05-19T02:01:26.151Z" agent="5.0 (Windows NT 10.0; Win64; x64) AppleWebKit/537.36 (KHTML, like Gecko) Chrome/87.0.4280.141 Safari/537.36" etag="Fgf7APrmGlOeigKArolX" version="13.6.2" type="github">
  <diagram id="lgvWNHFAwYmxlft_kGhD" name="Page-1">
    <mxGraphModel dx="1038" dy="548" grid="1" gridSize="10" guides="1" tooltips="1" connect="1" arrows="1" fold="1" page="1" pageScale="1" pageWidth="827" pageHeight="1169" math="0" shadow="0">
      <root>
        <mxCell id="0" />
        <mxCell id="1" parent="0" />
        <mxCell id="znKaycgS90jpVU7poeeq-3" value="" style="edgeStyle=orthogonalEdgeStyle;rounded=0;orthogonalLoop=1;jettySize=auto;html=1;" edge="1" parent="1" source="znKaycgS90jpVU7poeeq-1" target="znKaycgS90jpVU7poeeq-2">
          <mxGeometry relative="1" as="geometry" />
        </mxCell>
        <mxCell id="znKaycgS90jpVU7poeeq-1" value="" style="ellipse;whiteSpace=wrap;html=1;" vertex="1" parent="1">
          <mxGeometry x="270" y="100" width="120" height="80" as="geometry" />
        </mxCell>
        <mxCell id="znKaycgS90jpVU7poeeq-5" value="" style="edgeStyle=orthogonalEdgeStyle;rounded=0;orthogonalLoop=1;jettySize=auto;html=1;" edge="1" parent="1" source="znKaycgS90jpVU7poeeq-2" target="znKaycgS90jpVU7poeeq-4">
          <mxGeometry relative="1" as="geometry" />
        </mxCell>
        <mxCell id="znKaycgS90jpVU7poeeq-2" value="" style="whiteSpace=wrap;html=1;" vertex="1" parent="1">
          <mxGeometry x="270" y="270" width="120" height="60" as="geometry" />
        </mxCell>
        <mxCell id="znKaycgS90jpVU7poeeq-7" value="" style="edgeStyle=orthogonalEdgeStyle;rounded=0;orthogonalLoop=1;jettySize=auto;html=1;" edge="1" parent="1" source="znKaycgS90jpVU7poeeq-4" target="znKaycgS90jpVU7poeeq-6">
          <mxGeometry relative="1" as="geometry" />
        </mxCell>
        <mxCell id="znKaycgS90jpVU7poeeq-4" value="" style="rhombus;whiteSpace=wrap;html=1;" vertex="1" parent="1">
          <mxGeometry x="230" y="400" width="80" height="80" as="geometry" />
        </mxCell>
        <mxCell id="znKaycgS90jpVU7poeeq-9" value="" style="edgeStyle=orthogonalEdgeStyle;rounded=0;orthogonalLoop=1;jettySize=auto;html=1;entryX=0.5;entryY=0;entryDx=0;entryDy=0;" edge="1" parent="1" target="znKaycgS90jpVU7poeeq-11">
          <mxGeometry relative="1" as="geometry">
            <mxPoint x="490" y="480" as="sourcePoint" />
            <Array as="points">
              <mxPoint x="470" y="480" />
              <mxPoint x="470" y="520" />
              <mxPoint x="384" y="520" />
            </Array>
          </mxGeometry>
        </mxCell>
        <mxCell id="znKaycgS90jpVU7poeeq-13" value="" style="edgeStyle=orthogonalEdgeStyle;rounded=0;orthogonalLoop=1;jettySize=auto;html=1;entryX=0.5;entryY=0;entryDx=0;entryDy=0;" edge="1" parent="1" source="znKaycgS90jpVU7poeeq-6" target="znKaycgS90jpVU7poeeq-10">
          <mxGeometry relative="1" as="geometry">
            <Array as="points">
              <mxPoint x="530" y="520" />
              <mxPoint x="600" y="520" />
            </Array>
          </mxGeometry>
        </mxCell>
        <mxCell id="znKaycgS90jpVU7poeeq-14" value="" style="edgeStyle=orthogonalEdgeStyle;rounded=0;orthogonalLoop=1;jettySize=auto;html=1;" edge="1" parent="1" source="znKaycgS90jpVU7poeeq-6" target="znKaycgS90jpVU7poeeq-8">
          <mxGeometry relative="1" as="geometry" />
        </mxCell>
        <mxCell id="znKaycgS90jpVU7poeeq-6" value="" style="shape=cube;whiteSpace=wrap;html=1;boundedLbl=1;backgroundOutline=1;darkOpacity=0.05;darkOpacity2=0.1;" vertex="1" parent="1">
          <mxGeometry x="430" y="400" width="120" height="80" as="geometry" />
        </mxCell>
        <mxCell id="znKaycgS90jpVU7poeeq-8" value="" style="shape=cylinder;whiteSpace=wrap;html=1;boundedLbl=1;backgroundOutline=1;" vertex="1" parent="1">
          <mxGeometry x="460" y="590" width="60" height="80" as="geometry" />
        </mxCell>
        <mxCell id="znKaycgS90jpVU7poeeq-10" value="" style="shape=cylinder;whiteSpace=wrap;html=1;boundedLbl=1;backgroundOutline=1;" vertex="1" parent="1">
          <mxGeometry x="570" y="590" width="60" height="80" as="geometry" />
        </mxCell>
        <mxCell id="znKaycgS90jpVU7poeeq-11" value="" style="shape=cylinder;whiteSpace=wrap;html=1;boundedLbl=1;backgroundOutline=1;" vertex="1" parent="1">
          <mxGeometry x="354" y="585" width="60" height="80" as="geometry" />
        </mxCell>
      </root>
    </mxGraphModel>
  </diagram>
</mxfile>
